<?xml version="1.0" ?><svg style="enable-background:new 0 0 512 512;" version="1.1" viewBox="0 0 512 512" xml:space="preserve" xmlns="http://www.w3.org/2000/svg" xmlns:xlink="http://www.w3.org/1999/xlink"><style type="text/css">
	.st0{display:none;}
	.st1{display:inline;}
	.st2{fill:none;stroke:#B3B3B3;stroke-miterlimit:10;}
	.st3{fill:none;stroke:#ED1C24;stroke-miterlimit:10;}
</style><g class="st0" id="Layer_31"><g class="st1"><g><g><ellipse class="st2" cx="256" cy="256" rx="248.1" ry="248.3"/><path class="st2" d="M398.8,504.5H113.2c-18.8,0-34.1-15.3-34.1-34.1V41.6c0-18.8,15.3-34.1,34.1-34.1h285.5      c18.8,0,34.1,15.3,34.1,34.1v428.9C432.9,489.3,417.6,504.5,398.8,504.5z"/><path class="st2" d="M7.9,399.8V112.2c0-16.4,13.3-29.8,29.8-29.8h436.7c16.4,0,29.8,13.3,29.8,29.8v287.6      c0,16.4-13.3,29.8-29.8,29.8H37.6C21.2,429.6,7.9,416.2,7.9,399.8z"/><path class="st2" d="M440.4,469.9H71.6c-16.4,0-29.8-13.3-29.8-29.8V71.9c0-16.4,13.3-29.8,29.8-29.8h368.8      c16.4,0,29.8,13.3,29.8,29.8v368.2C470.2,456.5,456.8,469.9,440.4,469.9z"/></g><rect class="st3" height="497" transform="matrix(-1.836970e-16 1 -1 -1.836970e-16 512 5.684342e-14)" width="497" x="7.5" y="7.5"/></g></g></g><g id="_x33_0_no_parking_sign"/><g id="_x32_9_paid_parking"/><g id="_x32_8_traffic_cone"/><g id="_x32_7_valet_parking_sign"/><g id="_x32_6_parking_ticket"/><g id="_x32_5_parking_gate"/><g id="_x32_4_limited_time_parking"/><g id="_x32_3_reserve_parking_disabilities"/><g id="_x32_2_mobile_parking"/><g id="_x32_1_ticket_parking__machine"/><g id="_x32_0_stop_sign"/><g id="_x31_9_car_lock"/><g id="_x31_8_mobile_parking"/><g id="_x31_7_parking_sign"/><g id="_x31_6_car_key"/><g id="_x31_5__x0A_tow_truck"/><g id="_x31_4_parking_lock"/><g id="_x31_3_parking_ticket"/><g id="_x31_2_parking_gate"/><g id="_x31_1_parking_machine"/><g id="_x31_0_garage_parking"/><g id="_x30_9_parking_map"/><g id="_x30_8_car_sign"/><g id="_x30_7_sparking_sign"/><g id="_x30_6_no_parking_sign"/><g id="_x30_5_no_car_sign"/><g id="_x30_4_valet_parking"/><g id="_x30_3_cctv"/><g id="_x30_2_valet_parking_attendant"/><g id="_x30_1_parking_attendant"/><g id="Layer_32"><g><path d="M256,0C114.6,0,0,114.6,0,256c0,141.4,114.6,256,256,256c141.4,0,256-114.6,256-256C512,114.6,397.4,0,256,0z M256,480.7    C131.9,480.7,31.3,380.1,31.3,256C31.3,131.9,131.9,31.3,256,31.3c124.1,0,224.7,100.6,224.7,224.7    C480.7,380.1,380.1,480.7,256,480.7z"/><g><path d="M258.6,284c-9.1,0-18,2.4-25.8,7c-9,5.3-18.4,8.5-27.9,9.5c-3.5,0.4-7,0.6-10.5,0.6c-8.3,0-16.6-1.1-24.4-3.1     c6.5,12.2,13.9,23.9,22.1,34.7c18,23.8,40.4,44.3,66.6,61c17.5-11.2,33.5-24.3,47.5-38.8c2-8.6,3.5-17.3,3.5-19.9     C309.5,306.9,286.7,284,258.6,284z"/><path d="M285.7,188.5c-7.8,7.8-12.1,19.5-12.1,32.9c0,18,9.7,34.8,25.2,44c13.4,7.9,24.1,18.8,31,31.7c3.3,6.1,5.7,12.2,7.4,18.3     c10.9-17.2,19.8-35.9,26.6-55.7c10.4-30.4,13.4-56.8,14.3-70.7c-17.4-8.7-35.8-15.6-54.8-20.5     C313.5,170.6,299.1,175.1,285.7,188.5z"/><path d="M243.3,219c-0.2-3.7,0.2-7.5,1.1-11.4c5.2-23.1,16.8-38.1,26.8-47.3c-3.4-0.2-6.8-0.3-9.9-0.3c-0.8,0-2.7,0-2.7,0     s-1.8,0-2.7,0c-18,0-65.1,2.8-116.8,28.8c0.7,11.4,3.1,33.1,10.4,58.4l5.6,6.5c9.5,10.2,23.1,16.1,37.2,16.1     C220.5,270,243.3,247.2,243.3,219z"/><path d="M256,56.9C146,56.9,56.9,146,56.9,256c0,110,89.2,199.1,199.1,199.1S455.1,366,455.1,256C455.1,146,366,56.9,256,56.9z      M389.4,265.9c-10,29.7-24.3,56.9-42.6,81.1c-22.5,29.9-51.1,55-85,74.7l-3.3,1.9l-3.3-1.9c-33.8-19.7-62.4-44.8-84.9-74.6     c-18.2-24.1-32.5-51.4-42.6-81c-15.5-45.7-15.9-83.3-15.8-90.4l0-3.8l3.3-1.9c61.1-34.2,118.6-37.9,140.5-37.9c1,0,1.9,0,2.8,0     c0.8,0,1.7,0,2.7,0c21.9,0,79.4,3.7,140.5,37.9l3.3,1.9l0,3.8C405.2,182.7,404.9,220.2,389.4,265.9z"/></g></g></g></svg>